<?xml version="1.0" encoding="utf-8"?>
<!-- Generator: Adobe Illustrator 20.0.0, SVG Export Plug-In . SVG Version: 6.00 Build 0)  -->
<svg version="1.1" id="Layer_1" xmlns="http://www.w3.org/2000/svg" xmlns:xlink="http://www.w3.org/1999/xlink" x="0px" y="0px"
	 viewBox="0 0 298.4 247.5" style="enable-background:new 0 0 298.4 247.5;" xml:space="preserve">
<style type="text/css">
	.st0{
	
		fill:#FFFFFF;
		stroke:#1278AB;
		stroke-width:1.49;
		stroke-miterlimit:10;	
		stroke-dasharray: 70;
		animation: dash 15s linear;
		animation-iteration-count: infinite;
<!-- 		-webkit-animation-delay: 0.5s;
		-moz-animation-delay: 0.5s;
		animation-delay: 0.5s; -->
		
	}
	
	@keyframes dash {
		  to {
			stroke-dashoffset: 1000;
		  }
	}
	
	
	
	.st1{
		fill:#A2CF64;
		animation: colorChange 5s infinite;
		<!-- -webkit-animation-delay: 1s;
		-moz-animation-delay: 1s;
		animation-delay: 1s; -->
		
		
	}
	
	@keyframes colorChange {
		0%{fill:#A2CF64}
		50%{fill:#1278AB}
		100%{fill: #A2CF64}
	}

}
	
</style>
<title>Disctopia logo</title>

<!-- Cloud Logo -->
<path class="st0 fade-in" d="M203.8,36.7c0,0,32.1-3.5,51.2,12.3s25.3,39.1,25,46.5c0,0,16.1,14.3,17.1,30.6s-6.7,30.6-12,35.3
	c0,0-2.9,23.6-19.2,38.1s-43,17.3-43,17.3s-20.2,25-52.2,28.8c-31.1,3.6-62.7-10.7-72.1-23.9c-0.3-0.4-0.5-0.7-0.7-1.1
	c0,0-15.2-0.1-25.8-8.5s-14.8-14.2-17.5-20.2c0,0-35.8,3-49.8-37.5c-14.6-42,19.5-78.6,48.6-82.3c0,0,11.3-25.7,38-29.7
	c0,0,17.3-44.9,60.4-40.9S203.8,36.7,203.8,36.7z"/>
	
	
<polygon class="st1" points="121.9,78.2 121.9,179.4 212.5,128.8 "/>
</svg>
